<svg width="24" height="24" viewBox="0 0 24 24" fill="none" xmlns="http://www.w3.org/2000/svg">
<path d="M20.7499 2.66666H17.2499V0.916662C17.2499 0.761952 17.1885 0.613579 17.0791 0.504183C16.9697 0.394787 16.8213 0.333328 16.6666 0.333328C16.5119 0.333328 16.3635 0.394787 16.2541 0.504183C16.1447 0.613579 16.0833 0.761952 16.0833 0.916662V2.66666H7.91659V0.916662C7.91659 0.761952 7.85513 0.613579 7.74573 0.504183C7.63634 0.394787 7.48796 0.333328 7.33325 0.333328C7.17854 0.333328 7.03017 0.394787 6.92077 0.504183C6.81138 0.613579 6.74992 0.761952 6.74992 0.916662V2.66666H3.24992C2.47666 2.66759 1.73533 2.97518 1.18855 3.52196C0.641766 4.06874 0.334178 4.81006 0.333252 5.58333V20.75C0.334178 21.5233 0.641766 22.2646 1.18855 22.8114C1.73533 23.3581 2.47666 23.6657 3.24992 23.6667H20.7499C21.5233 23.666 22.2648 23.3586 22.8116 22.8117C23.3585 22.2649 23.666 21.5234 23.6666 20.75V5.58333C23.666 4.80997 23.3585 4.06846 22.8116 3.52162C22.2648 2.97477 21.5233 2.66728 20.7499 2.66666ZM22.4999 20.75C22.4999 21.2141 22.3155 21.6592 21.9874 21.9874C21.6592 22.3156 21.214 22.5 20.7499 22.5H3.24992C2.78579 22.5 2.34067 22.3156 2.01248 21.9874C1.68429 21.6592 1.49992 21.2141 1.49992 20.75V10.8333H22.4999V20.75ZM22.4999 9.66666H1.49992V5.58333C1.49992 4.61733 2.28159 3.83333 3.24992 3.83333H6.74992V5.58333C6.74992 5.73804 6.81138 5.88641 6.92077 5.99581C7.03017 6.1052 7.17854 6.16666 7.33325 6.16666C7.48796 6.16666 7.63634 6.1052 7.74573 5.99581C7.85513 5.88641 7.91659 5.73804 7.91659 5.58333V3.83333H16.0833V5.58333C16.0833 5.73804 16.1447 5.88641 16.2541 5.99581C16.3635 6.1052 16.5119 6.16666 16.6666 6.16666C16.8213 6.16666 16.9697 6.1052 17.0791 5.99581C17.1885 5.88641 17.2499 5.73804 17.2499 5.58333V3.83333H20.7499C21.214 3.83333 21.6592 4.0177 21.9874 4.34589C22.3155 4.67408 22.4999 5.1192 22.4999 5.58333V9.66666Z" fill="black"/>
</svg>
