<svg width="12" height="13" viewBox="0 0 12 13" fill="none" xmlns="http://www.w3.org/2000/svg">
<path d="M0 0.333252H2C2.18667 0.333252 2.35333 0.406585 2.47333 0.526585L3.86 1.91992L4.39333 1.39325C4.66667 1.13325 5 0.999919 5.33333 0.999919H9.33333C9.66667 0.999919 10 1.13325 10.2733 1.39325L10.94 2.05992C11.2 2.33325 11.3333 2.66659 11.3333 2.99992V11.6666C11.3333 12.0202 11.1929 12.3593 10.9428 12.6094C10.6928 12.8594 10.3536 12.9999 10 12.9999H3.33333C2.97971 12.9999 2.64057 12.8594 2.39052 12.6094C2.14048 12.3593 2 12.0202 2 11.6666V4.33325C2 3.99992 2.13333 3.66659 2.39333 3.39325L2.92 2.85992L1.72667 1.66659H0V0.333252ZM5.33333 2.33325V3.66659H9.33333V2.33325H5.33333ZM5.60667 6.33325L4.27333 4.99992H3.33333V5.93992L4.66667 7.27325V9.39325L3.33333 10.7266V11.6666H4.27333L5.60667 10.3333H7.72667L9.06 11.6666H10V10.7266L8.66667 9.39325V7.27325L10 5.93992V4.99992H9.06L7.72667 6.33325H5.60667ZM6 7.66659H7.33333V8.99992H6V7.66659Z" fill="#626161"/>
</svg>
