<svg width="36" height="36" viewBox="0 0 36 36" fill="none" xmlns="http://www.w3.org/2000/svg">
<path d="M18 20.25C16.8875 20.25 15.7999 19.9201 14.8749 19.302C13.9499 18.6839 13.2289 17.8054 12.8032 16.7776C12.3774 15.7498 12.266 14.6188 12.4831 13.5276C12.7001 12.4365 13.2359 11.4342 14.0225 10.6475C14.8092 9.86086 15.8115 9.32513 16.9026 9.10809C17.9938 8.89104 19.1248 9.00244 20.1526 9.42818C21.1804 9.85392 22.0589 10.5749 22.677 11.4999C23.2951 12.4249 23.625 13.5125 23.625 14.625C23.6232 16.1163 23.03 17.546 21.9755 18.6005C20.921 19.655 19.4913 20.2482 18 20.25ZM18 11.25C17.3325 11.25 16.68 11.4479 16.125 11.8188C15.5699 12.1896 15.1374 12.7167 14.8819 13.3334C14.6265 13.9501 14.5596 14.6287 14.6899 15.2834C14.8201 15.9381 15.1415 16.5395 15.6135 17.0115C16.0855 17.4835 16.6869 17.8049 17.3416 17.9352C17.9963 18.0654 18.6749 17.9985 19.2916 17.7431C19.9083 17.4877 20.4354 17.0551 20.8062 16.5001C21.1771 15.945 21.375 15.2925 21.375 14.625C21.3741 13.7302 21.0182 12.8722 20.3855 12.2395C19.7528 11.6068 18.8948 11.2509 18 11.25Z" fill="black"/>
<path d="M18 33.75L8.50951 22.5574C8.37764 22.3893 8.24714 22.2202 8.11801 22.05C6.49687 19.9145 5.62108 17.3061 5.62501 14.625C5.62501 11.3429 6.9288 8.19532 9.24957 5.87455C11.5703 3.55379 14.718 2.25 18 2.25C21.2821 2.25 24.4297 3.55379 26.7505 5.87455C29.0712 8.19532 30.375 11.3429 30.375 14.625C30.3789 17.3049 29.5036 19.9121 27.8831 22.0466L27.882 22.05C27.882 22.05 27.5445 22.4933 27.4939 22.5529L18 33.75ZM9.91464 20.6944C9.91464 20.6944 10.1768 21.0409 10.2364 21.1151L18 30.2715L25.7738 21.1027C25.8233 21.0409 26.0865 20.6921 26.0876 20.691C27.4119 18.9463 28.1276 16.8154 28.125 14.625C28.125 11.9397 27.0583 9.36435 25.1595 7.46554C23.2607 5.56674 20.6853 4.5 18 4.5C15.3147 4.5 12.7394 5.56674 10.8406 7.46554C8.94175 9.36435 7.87501 11.9397 7.87501 14.625C7.87265 16.8168 8.58914 18.9488 9.91464 20.6944Z" fill="black"/>
</svg>
