<svg width="16" height="16" viewBox="0 0 16 16" fill="none" xmlns="http://www.w3.org/2000/svg">
<path d="M13.3033 4.44671C12.2544 3.39782 10.918 2.68351 9.46318 2.39412C8.00832 2.10472 6.50032 2.25325 5.12987 2.82091C3.75942 3.38857 2.58808 4.34986 1.76397 5.58324C0.93986 6.81661 0.499995 8.26666 0.5 9.75003V12.5H5V11.5H1.5V9.75003C1.5 6.16593 4.41591 3.25003 8 3.25003C11.5841 3.25003 14.5 6.16593 14.5 9.75003V11.5H11V12.5H15.5V9.75003C15.5027 8.76471 15.3099 7.78865 14.9329 6.87834C14.5558 5.96803 14.0019 5.14154 13.3033 4.44671Z" fill="#626161"/>
<path d="M2.5 8.25H3.5V9.25H2.5V8.25ZM7.5 4H8.5V5H7.5V4ZM4.25 5.25H5.25V6.25H4.25V5.25ZM12.5 8.25H13.5V9.25H12.5V8.25ZM9.28819 10.4719L11.4507 5.96647L10.5491 5.53372L8.38716 10.0379C7.90861 9.94258 7.41171 10.0251 6.98964 10.2699C6.56757 10.5148 6.24931 10.9052 6.09454 11.3679C5.93977 11.8307 5.95913 12.334 6.14897 12.7835C6.33881 13.233 6.68611 13.5979 7.12573 13.8096C7.56536 14.0213 8.06712 14.0654 8.53693 13.9336C9.00675 13.8018 9.41234 13.5031 9.67766 13.0936C9.94298 12.6841 10.0498 12.1918 9.9781 11.7092C9.9064 11.2265 9.66109 10.7866 9.28819 10.4719ZM8 13C7.80222 13 7.60888 12.9414 7.44443 12.8315C7.27998 12.7216 7.15181 12.5654 7.07612 12.3827C7.00043 12.2 6.98063 11.9989 7.01921 11.8049C7.0578 11.6109 7.15304 11.4327 7.29289 11.2929C7.43275 11.153 7.61093 11.0578 7.80491 11.0192C7.99889 10.9806 8.19996 11.0004 8.38268 11.0761C8.56541 11.1518 8.72159 11.28 8.83147 11.4444C8.94135 11.6089 9 11.8022 9 12C8.9997 12.2651 8.89425 12.5193 8.70678 12.7068C8.51931 12.8942 8.26513 12.9997 8 13Z" fill="#626161"/>
</svg>
