<svg width="14" height="14" viewBox="0 0 14 14" fill="none" xmlns="http://www.w3.org/2000/svg">
<path d="M6.99999 0.333252C10.682 0.333252 13.6667 3.31792 13.6667 6.99992C13.6667 10.6819 10.682 13.6666 6.99999 13.6666C3.31799 13.6666 0.333328 10.6819 0.333328 6.99992C0.333328 3.31792 3.31799 0.333252 6.99999 0.333252ZM4.33333 7.66658L1.70799 7.66725C1.85652 8.84206 2.39162 9.93409 3.229 10.7714C4.06639 11.6086 5.1585 12.1436 6.33333 12.2919V9.66658C5.8029 9.66658 5.29419 9.45587 4.91911 9.0808C4.54404 8.70573 4.33333 8.19702 4.33333 7.66658ZM12.292 7.66725L9.66666 7.66658C9.66666 8.19702 9.45595 8.70573 9.08087 9.0808C8.7058 9.45587 8.19709 9.66658 7.66666 9.66658L7.66733 12.2919C8.84204 12.1434 9.93399 11.6084 10.7712 10.7712C11.6085 9.93391 12.1435 8.84196 12.292 7.66725ZM6.99999 1.66659C5.70092 1.66661 4.44651 2.14071 3.47216 2.99992C2.49782 3.85913 1.87052 5.04438 1.70799 6.33325H4.33333C4.33333 6.15644 4.40357 5.98687 4.52859 5.86185C4.65361 5.73682 4.82318 5.66658 4.99999 5.66658H8.99999C9.17681 5.66658 9.34637 5.73682 9.4714 5.86185C9.59642 5.98687 9.66666 6.15644 9.66666 6.33325H12.292C12.1295 5.04438 11.5022 3.85913 10.5278 2.99992C9.55348 2.14071 8.29907 1.66661 6.99999 1.66659Z" fill="#626161"/>
</svg>
