<svg width="20" height="12" viewBox="0 0 20 12" fill="none" xmlns="http://www.w3.org/2000/svg">
<path d="M19.513 11.0452C19.2317 11.3264 18.8502 11.4844 18.4525 11.4844C18.0547 11.4844 17.6733 11.3264 17.392 11.0452L9.96697 3.6202L2.54197 11.0452C2.25907 11.3184 1.88016 11.4696 1.48687 11.4662C1.09357 11.4628 0.717352 11.305 0.43924 11.0269C0.161127 10.7488 0.00337567 10.3726 -4.19617e-05 9.9793C-0.00345959 9.586 0.147732 9.2071 0.420969 8.9242L8.90647 0.438696C9.18776 0.157489 9.56922 -0.000484031 9.96697 -0.000484031C10.3647 -0.000484031 10.7462 0.157489 11.0275 0.438696L19.513 8.9242C19.7942 9.20549 19.9521 9.58695 19.9521 9.9847C19.9521 10.3824 19.7942 10.7639 19.513 11.0452Z" fill="white"/>
</svg>
